<svg width="140" height="180" viewBox="0 0 140 180" xmlns="http://www.w3.org/2000/svg">
  <rect width="140" height="180" rx="4" fill="#FAFAF7"/>
  <rect x="0" y="0" width="46" height="180" fill="#1B2430"/>
  <rect x="10" y="16" width="26" height="7" rx="1" fill="#FFFFFF"/>
  <rect x="10" y="34" width="26" height="3" rx="1" fill="#C9A36A"/>
  <rect x="10" y="42" width="20" height="3" rx="1" fill="#8A93A3"/>
  <rect x="10" y="60" width="26" height="3" rx="1" fill="#C9A36A"/>
  <rect x="10" y="68" width="22" height="3" rx="1" fill="#8A93A3"/>
  <rect x="10" y="75" width="18" height="3" rx="1" fill="#8A93A3"/>
  <rect x="58" y="16" width="24" height="5" rx="1" fill="#B08D57"/>
  <rect x="58" y="26" width="72" height="3" rx="1" fill="#D8D5CC"/>
  <rect x="58" y="33" width="72" height="3" rx="1" fill="#D8D5CC"/>
  <rect x="58" y="50" width="24" height="5" rx="1" fill="#B08D57"/>
  <rect x="58" y="60" width="72" height="3" rx="1" fill="#D8D5CC"/>
  <rect x="58" y="67" width="60" height="3" rx="1" fill="#D8D5CC"/>
  <rect x="58" y="84" width="24" height="5" rx="1" fill="#B08D57"/>
  <rect x="58" y="94" width="72" height="3" rx="1" fill="#D8D5CC"/>
</svg>